<svg width="1200" height="820" viewBox="0 0 1200 820" fill="none" xmlns="http://www.w3.org/2000/svg">
  <defs>
    <linearGradient id="bg" x1="120" y1="60" x2="1080" y2="760" gradientUnits="userSpaceOnUse">
      <stop stop-color="#FBF7F2"/>
      <stop offset="1" stop-color="#F5EFE7"/>
    </linearGradient>
    <linearGradient id="arch" x1="790" y1="170" x2="790" y2="760" gradientUnits="userSpaceOnUse">
      <stop stop-color="#F2DCC9"/>
      <stop offset="1" stop-color="#EFD3BC"/>
    </linearGradient>
    <linearGradient id="card" x1="670" y1="72" x2="1110" y2="360" gradientUnits="userSpaceOnUse">
      <stop stop-color="#FFFFFF" stop-opacity="0.95"/>
      <stop offset="1" stop-color="#F6FAFF" stop-opacity="0.95"/>
    </linearGradient>
    <filter id="softShadow" x="0" y="0" width="1200" height="820" filterUnits="userSpaceOnUse" color-interpolation-filters="sRGB">
      <feDropShadow dx="0" dy="18" stdDeviation="18" flood-color="#1A1D26" flood-opacity="0.12"/>
    </filter>
  </defs>

  <rect x="20" y="20" width="1160" height="780" rx="34" fill="url(#bg)"/>
  <rect x="700" y="120" width="310" height="600" rx="160" fill="url(#arch)"/>

  <g opacity="0.92">
    <rect x="96" y="156" width="438" height="18" rx="9" fill="#737A86"/>
    <rect x="110" y="174" width="16" height="332" rx="8" fill="#5B6270"/>
    <rect x="504" y="174" width="16" height="332" rx="8" fill="#5B6270"/>
    <rect x="96" y="258" width="438" height="14" rx="7" fill="#737A86"/>
    <rect x="96" y="344" width="438" height="14" rx="7" fill="#737A86"/>
    <rect x="96" y="430" width="438" height="14" rx="7" fill="#737A86"/>
  </g>

  <g>
    <rect x="136" y="194" width="74" height="52" rx="8" fill="#2E7CE6"/>
    <rect x="136" y="286" width="74" height="46" rx="8" fill="#00A870"/>
    <rect x="136" y="372" width="74" height="46" rx="8" fill="#F0833A"/>

    <rect x="232" y="194" width="92" height="52" rx="8" fill="#FFC96A"/>
    <rect x="232" y="286" width="92" height="46" rx="8" fill="#7FA9FF"/>
    <rect x="232" y="372" width="92" height="46" rx="8" fill="#FFE2B7"/>

    <rect x="346" y="194" width="66" height="52" rx="8" fill="#31B77E"/>
    <rect x="346" y="286" width="66" height="46" rx="8" fill="#F5A768"/>
    <rect x="346" y="372" width="66" height="46" rx="8" fill="#4C88E6"/>

    <rect x="430" y="194" width="66" height="52" rx="8" fill="#FFE8CC"/>
    <rect x="430" y="286" width="66" height="46" rx="8" fill="#2A9E6F"/>
    <rect x="430" y="372" width="66" height="46" rx="8" fill="#F9B87E"/>
  </g>

  <g opacity="0.75" fill="#FFFFFF" font-family="Arial, sans-serif" font-size="15" font-weight="700">
    <text x="158" y="225">STK</text>
    <text x="255" y="225">A-14</text>
    <text x="366" y="224">QTE</text>
    <text x="446" y="224">ID</text>
    <text x="252" y="315">ALR</text>
    <text x="448" y="400">B8</text>
  </g>

  <g filter="url(#softShadow)">
    <rect x="650" y="68" width="454" height="294" rx="24" fill="url(#card)"/>
  </g>
  <g>
    <text x="688" y="118" fill="#2A3140" font-family="Arial, sans-serif" font-size="20" font-weight="700">Dashboard StockPilot</text>
    <rect x="688" y="140" width="398" height="1" fill="#D8DEE9"/>

    <rect x="688" y="168" width="118" height="84" rx="14" fill="#EAF4FF"/>
    <text x="706" y="196" fill="#4A596F" font-family="Arial, sans-serif" font-size="13" font-weight="600">Stock total</text>
    <text x="706" y="232" fill="#1F2A3A" font-family="Arial, sans-serif" font-size="28" font-weight="700">1 284</text>

    <rect x="824" y="168" width="118" height="84" rx="14" fill="#EFFFF7"/>
    <text x="842" y="196" fill="#4A596F" font-family="Arial, sans-serif" font-size="13" font-weight="600">Entrées</text>
    <text x="842" y="232" fill="#1F2A3A" font-family="Arial, sans-serif" font-size="28" font-weight="700">+64</text>

    <rect x="960" y="168" width="126" height="84" rx="14" fill="#FFF1EE"/>
    <text x="978" y="196" fill="#4A596F" font-family="Arial, sans-serif" font-size="13" font-weight="600">Alertes</text>
    <text x="978" y="232" fill="#1F2A3A" font-family="Arial, sans-serif" font-size="28" font-weight="700">4</text>

    <rect x="688" y="270" width="398" height="74" rx="14" fill="#FFFFFF" stroke="#E3E8F0"/>
    <rect x="706" y="303" width="156" height="10" rx="5" fill="#2E7CE6"/>
    <rect x="706" y="321" width="218" height="10" rx="5" fill="#38B981"/>
    <rect x="706" y="285" width="88" height="10" rx="5" fill="#F19A54"/>
    <text x="952" y="294" fill="#5A6475" font-family="Arial, sans-serif" font-size="12" font-weight="600">Sorties journalières</text>
    <text x="952" y="317" fill="#2A3140" font-family="Arial, sans-serif" font-size="22" font-weight="700">46</text>
  </g>

  <g>
    <ellipse cx="700" cy="676" rx="250" ry="56" fill="#EADFD2"/>

    <rect x="578" y="540" width="124" height="84" rx="10" fill="#F2B47D"/>
    <rect x="596" y="560" width="24" height="24" rx="4" fill="#FFDDBF"/>
    <rect x="626" y="560" width="24" height="24" rx="4" fill="#FFDDBF"/>
    <rect x="656" y="560" width="24" height="24" rx="4" fill="#FFDDBF"/>

    <rect x="740" y="522" width="156" height="112" rx="14" fill="#3A87E8"/>
    <rect x="760" y="546" width="116" height="12" rx="6" fill="#D9EAFF"/>
    <rect x="760" y="566" width="86" height="12" rx="6" fill="#BFD9FF"/>
    <rect x="760" y="586" width="104" height="12" rx="6" fill="#E6F1FF"/>
    <circle cx="870" cy="600" r="9" fill="#FFCF8D"/>

    <rect x="462" y="596" width="110" height="18" rx="9" fill="#7A8494"/>
    <rect x="486" y="574" width="22" height="30" rx="8" fill="#7A8494"/>
    <rect x="524" y="574" width="22" height="30" rx="8" fill="#7A8494"/>
    <circle cx="472" cy="626" r="16" fill="#464E5D"/>
    <circle cx="552" cy="626" r="16" fill="#464E5D"/>

    <circle cx="430" cy="504" r="28" fill="#F2C7A1"/>
    <path d="M402 560C402 531.281 425.281 508 454 508H470V632H402V560Z" fill="#2E7CE6"/>
    <rect x="448" y="548" width="48" height="84" rx="20" fill="#2E7CE6"/>
    <rect x="468" y="560" width="72" height="18" rx="9" fill="#F2C7A1"/>
    <rect x="438" y="632" width="18" height="50" rx="8" fill="#2A3140"/>
    <rect x="468" y="632" width="18" height="50" rx="8" fill="#2A3140"/>
    <rect x="430" y="678" width="30" height="10" rx="5" fill="#2A3140"/>
    <rect x="460" y="678" width="30" height="10" rx="5" fill="#2A3140"/>
  </g>

  <g>
    <rect x="92" y="538" width="272" height="138" rx="18" fill="#FFFFFF" stroke="#E2E8F0"/>
    <text x="116" y="574" fill="#2A3140" font-family="Arial, sans-serif" font-size="16" font-weight="700">Mouvements récents</text>
    <rect x="116" y="588" width="212" height="1" fill="#E2E8F0"/>
    <circle cx="126" cy="616" r="6" fill="#38B981"/>
    <text x="142" y="621" fill="#4A5568" font-family="Arial, sans-serif" font-size="13" font-weight="600">Réception fournisseur (24 u.)</text>
    <circle cx="126" cy="642" r="6" fill="#F0833A"/>
    <text x="142" y="647" fill="#4A5568" font-family="Arial, sans-serif" font-size="13" font-weight="600">Sortie comptoir (6 u.)</text>
  </g>
</svg>
